<mxfile host="app.diagrams.net" modified="2023-12-16T08:33:52.265Z" agent="Mozilla/5.0 (Windows NT 10.0; Win64; x64) AppleWebKit/537.36 (KHTML, like Gecko) Chrome/120.0.0.0 Safari/537.36 Edg/120.0.0.0" version="22.1.11" etag="izy14DtKKqErC9j7U81K" type="github">
  <diagram name="PaginÄƒ-1" id="L33YFwbP2fFPPPuQUyGO">
    <mxGraphModel>
      <root>
        <mxCell id="0" />
        <mxCell id="1" parent="0" />
      </root>
    </mxGraphModel>
  </diagram>
</mxfile>
